# xmcd CD database file
#
# Track frame offsets:
#	150
#	24410
#	40982
#	56819
#	72031
#	88575
#	110932
#	131947
#	151352
#	170154
#	203716
#
# Disc length: 3499 seconds
#
# Revision: 4
# Processed by: cddbd v1.5.2PL0 Copyright (c) Steve Scherf et al.
# Submitted via: CDex 1.51
#
DISCID=a00da90b
DTITLE=Fiona Apple - When The Pawn
DYEAR=1999
DGENRE=Alternative
TTITLE0=On The Bound
TTITLE1=To Your Love
TTITLE2=Limp
TTITLE3=Love Ridden
TTITLE4=Paper Bag
TTITLE5=A Mistake
TTITLE6=Fast As You Can
TTITLE7=The Way Things Are
TTITLE8=Get Gone
TTITLE9=I Know
TTITLE10=Data
EXTD=YEAR: 1999
EXTT0=
EXTT1=
EXTT2=
EXTT3=
EXTT4=
EXTT5=
EXTT6=
EXTT7=
EXTT8=
EXTT9=
EXTT10=
PLAYORDER=
